<svg width="30" height="30" viewBox="0 0 59 59" fill="none" xmlns="http://www.w3.org/2000/svg">
<path d="M48.0497 44.1387C48.5693 44.6582 48.8612 45.3629 48.8612 46.0977C48.8612 46.8324 48.5693 47.5371 48.0497 48.0566C47.5302 48.5762 46.8255 48.8681 46.0907 48.8681C45.356 48.8681 44.6513 48.5762 44.1318 48.0566L29.4993 33.4196L14.8622 48.052C14.3427 48.5716 13.638 48.8635 12.9032 48.8635C12.1685 48.8635 11.4638 48.5716 10.9443 48.052C10.4247 47.5325 10.1328 46.8278 10.1328 46.093C10.1328 45.3583 10.4247 44.6536 10.9443 44.1341L25.5813 29.5016L10.9489 14.8645C10.4293 14.345 10.1374 13.6403 10.1374 12.9055C10.1374 12.1708 10.4293 11.4661 10.9489 10.9466C11.4684 10.427 12.1731 10.1351 12.9078 10.1351C13.6426 10.1351 14.3473 10.427 14.8668 10.9466L29.4993 25.5836L44.1364 10.9442C44.6559 10.4247 45.3606 10.1328 46.0953 10.1328C46.8301 10.1328 47.5348 10.4247 48.0543 10.9442C48.5739 11.4638 48.8658 12.1685 48.8658 12.9032C48.8658 13.638 48.5739 14.3427 48.0543 14.8622L33.4173 29.5016L48.0497 44.1387Z" fill="white"/>
</svg>
