<svg width="52" height="52" viewBox="0 0 52 52" fill="none" xmlns="http://www.w3.org/2000/svg">
<path d="M43.0625 8.125H8.9375C7.42958 8.12661 5.98388 8.72635 4.91761 9.79261C3.85135 10.8589 3.25161 12.3046 3.25 13.8125V38.1875C3.25161 39.6954 3.85135 41.1411 4.91761 42.2074C5.98388 43.2737 7.42958 43.8734 8.9375 43.875H43.0625C44.5704 43.8734 46.0161 43.2737 47.0824 42.2074C48.1487 41.1411 48.7484 39.6954 48.75 38.1875V13.8125C48.7484 12.3046 48.1487 10.8589 47.0824 9.79261C46.0161 8.72635 44.5704 8.12661 43.0625 8.125ZM41.6223 17.5327L26.9973 28.9077C26.7122 29.1294 26.3612 29.2498 26 29.2498C25.6388 29.2498 25.2878 29.1294 25.0027 28.9077L10.3777 17.5327C10.2058 17.403 10.0615 17.2404 9.95306 17.0543C9.84462 16.8683 9.77423 16.6626 9.74599 16.4491C9.71774 16.2357 9.7322 16.0187 9.78853 15.8109C9.84485 15.6031 9.94192 15.4085 10.0741 15.2385C10.2063 15.0685 10.3709 14.9265 10.5584 14.8207C10.7459 14.7149 10.9526 14.6474 11.1665 14.6222C11.3803 14.5969 11.597 14.6144 11.804 14.6737C12.0111 14.7329 12.2042 14.8327 12.3723 14.9673L26 25.5663L39.6277 14.9673C39.9684 14.7099 40.3968 14.5971 40.8201 14.6531C41.2434 14.7091 41.6277 14.9295 41.8898 15.2666C42.1519 15.6037 42.2708 16.0304 42.2207 16.4545C42.1707 16.8786 41.9557 17.2659 41.6223 17.5327Z" fill="white"/>
</svg>
