<svg width="52" height="52" viewBox="0 0 52 52" fill="none" xmlns="http://www.w3.org/2000/svg">
<path d="M47.1006 35.5631C46.7385 38.3155 45.3867 40.8419 43.298 42.6706C41.2092 44.4992 38.5261 45.5049 35.75 45.5C19.6219 45.5 6.50002 32.3781 6.50002 16.25C6.49504 13.4738 7.50079 10.7908 9.32941 8.70202C11.158 6.61323 13.6845 5.26152 16.4369 4.89933C17.1329 4.81434 17.8377 4.95674 18.4462 5.30525C19.0546 5.65377 19.534 6.18971 19.8128 6.83308L24.1028 16.4104V16.4348C24.3163 16.9273 24.4044 17.465 24.3594 17.9998C24.3144 18.5347 24.1376 19.0501 23.8449 19.5C23.8083 19.5548 23.7697 19.6056 23.7291 19.6564L19.5 24.6695C21.0214 27.761 24.2552 30.9664 27.3874 32.4918L32.3314 28.2851C32.38 28.2443 32.4308 28.2063 32.4838 28.1714C32.9333 27.8716 33.4504 27.6885 33.9885 27.6389C34.5265 27.5892 35.0684 27.6745 35.5652 27.887L35.5916 27.8992L45.1608 32.1871C45.8053 32.465 46.3426 32.9439 46.6922 33.5525C47.0419 34.161 47.1852 34.8664 47.1006 35.5631Z" fill="white"/>
</svg>
